<svg xmlns="http://www.w3.org/2000/svg" viewBox="-2 -2 104 104"><line x1="50" y1="0" x2="50" y2="100" stroke-linecap="round" style="transition: all 300ms; stroke: #94a3b8;" stroke-width="1.58px"/><line style="transition: all 300ms; stroke: #94a3b8;" stroke-linecap="round" x1="50" y1="0" x2="100" y2="0" stroke-dasharray="0% 100%" stroke-width="1.58px"/><line style="transition: all 300ms; stroke: #94a3b8;" stroke-linecap="round" x1="50" y1="40.4" x2="100" y2="40.4" stroke-dasharray="0% 100%" stroke-width="1.58px"/><line style="transition: all 300ms; stroke: #94a3b8;" stroke-linecap="round" x1="100" y1="0" x2="100" y2="40.4" stroke-width="1.58px" transform="translate(-50)"/><line style="transition: all 300ms; stroke: #94a3b8;" stroke-linecap="round" x1="50" y1="0" x2="100" y2="40.4" stroke-dasharray="0% 100%" stroke-width="1.58px"/><line style="transition: all 300ms; stroke: #94a3b8;" stroke-linecap="round" x1="50" y1="40.4" x2="100" y2="0" stroke-dasharray="0% 100%" stroke-width="1.58px"/><line style="transition: all 300ms; stroke: #94a3b8;" stroke-linecap="round" x1="50" y1="0" x2="0" y2="0" stroke-dasharray="100% 0%" stroke-width="1.58px"/><line style="transition: all 300ms; stroke: #94a3b8;" stroke-linecap="round" x1="50" y1="40.4" x2="0" y2="40.4" stroke-dasharray="100% 0%" stroke-width="1.58px"/><line style="transition: all 300ms; stroke: #94a3b8;" stroke-linecap="round" x1="0" y1="0" x2="0" y2="40.4" stroke-width="1.58px" transform="translate(0)"/><line style="transition: all 300ms; stroke: #94a3b8;" stroke-linecap="round" x1="50" y1="0" x2="0" y2="40.4" stroke-dasharray="0% 100%" stroke-width="1.58px"/><line style="transition: all 300ms; stroke: #94a3b8;" stroke-linecap="round" x1="50" y1="40.4" x2="0" y2="0" stroke-dasharray="0% 100%" stroke-width="1.58px"/><line style="transition: all 300ms; stroke: #94a3b8;" stroke-linecap="round" x1="50" y1="100" x2="100" y2="100" stroke-dasharray="100% 0%" stroke-width="1.58px"/><line style="transition: all 300ms; stroke: #94a3b8;" stroke-linecap="round" x1="50" y1="59.6" x2="100" y2="59.6" stroke-dasharray="0% 100%" stroke-width="1.58px"/><line style="transition: all 300ms; stroke: #94a3b8;" stroke-linecap="round" x1="100" y1="100" x2="100" y2="59.6" stroke-width="1.58px" transform="translate(-50)"/><line style="transition: all 300ms; stroke: #94a3b8;" stroke-linecap="round" x1="50" y1="100" x2="100" y2="59.6" stroke-dasharray="0% 100%" stroke-width="1.58px"/><line style="transition: all 300ms; stroke: #94a3b8;" stroke-linecap="round" x1="50" y1="59.6" x2="100" y2="100" stroke-dasharray="100% 0%" stroke-width="1.58px"/><line style="transition: all 300ms; stroke: #94a3b8;" stroke-linecap="round" x1="50" y1="100" x2="0" y2="100" stroke-dasharray="100% 0%" stroke-width="1.58px"/><line style="transition: all 300ms; stroke: #94a3b8;" stroke-linecap="round" x1="50" y1="59.6" x2="0" y2="59.6" stroke-dasharray="0% 100%" stroke-width="1.58px"/><line style="transition: all 300ms; stroke: #94a3b8;" stroke-linecap="round" x1="0" y1="100" x2="0" y2="59.6" stroke-width="1.58px" transform="translate(50)"/><line style="transition: all 300ms; stroke: #94a3b8;" stroke-linecap="round" x1="50" y1="100" x2="0" y2="59.6" stroke-dasharray="0% 100%" stroke-width="1.58px"/><line style="transition: all 300ms; stroke: #94a3b8;" stroke-linecap="round" x1="50" y1="59.6" x2="0" y2="100" stroke-dasharray="0% 100%" stroke-width="1.58px"/></svg>
